<svg width="64" height="64" viewBox="0 0 64 64" fill="none" xmlns="http://www.w3.org/2000/svg">
  <!-- MIDL.AI Icon -->

  <defs>
    <linearGradient id="mGrad" x1="0%" y1="0%" x2="100%" y2="100%">
      <stop offset="0%" stop-color="#FB923C"/>
      <stop offset="100%" stop-color="#F97316"/>
    </linearGradient>
  </defs>

  <!-- Dark background -->
  <rect width="64" height="64" rx="14" fill="#0A0A0A"/>

  <!-- Simplified m -->
  <path d="M 10 42
           C 10 42, 11 32, 14 27
           C 17 22, 21 21, 24 25
           C 28 30, 29 36, 29 38
           C 29 35, 31 28, 35 24
           C 39 20, 44 20, 47 25
           C 50 30, 51 38, 51 38
           C 51 35, 53 28, 57 25
           C 60 22, 62 24, 62 28
           C 62 32, 62 42, 62 42"
        stroke="url(#mGrad)"
        stroke-width="5"
        stroke-linecap="round"
        stroke-linejoin="round"
        fill="none"/>

  <!-- Small AI indicator -->
  <text x="52" y="58"
        font-family="system-ui, sans-serif"
        font-size="12"
        font-weight="800"
        fill="white">AI</text>
</svg>
